<svg width="175" height="126" viewBox="0 0 175 126" fill="none" xmlns="http://www.w3.org/2000/svg">
<path d="M86.1827 79.7415C86.1827 82.5806 84.5313 84.0002 81.2286 84.0002H55.502C55.56 88.8095 53.8362 92.9814 50.3306 96.5159C46.8541 100.079 42.7112 101.861 37.9019 101.861C33.2375 101.861 29.2105 100.543 25.8209 97.9065C22.1125 95.0383 20.2584 91.359 20.2584 86.8684C20.2584 81.219 22.0691 77.6845 25.6905 76.2649C26.0092 78.6985 26.3279 81.1321 26.6465 83.5657C27.168 86.3469 28.0082 88.4329 29.1671 89.8235C30.6736 91.5907 32.8754 92.4744 35.7725 92.4744C38.351 92.4744 40.5383 91.7066 42.3345 90.1711C44.1308 88.6646 45.0289 86.2021 45.0289 82.7834C45.0289 81.9433 44.942 80.4078 44.7681 78.177C44.6233 76.2069 44.5798 74.7149 44.6378 73.7009C44.6957 72.1075 44.9854 70.7893 45.5069 69.7463C46.2891 68.2109 47.7667 66.8782 49.9395 65.7483C51.8227 64.9371 53.7058 64.1114 55.5889 63.2712V73.5706H62.1509C62.1509 72.5276 62.1365 71.3253 62.1075 69.9636C62.0785 68.602 62.064 67.7183 62.064 67.3127C62.064 65.1689 62.5565 63.7058 63.5416 62.9236C63.8602 62.6918 66.3373 61.4171 70.9727 59.0994V73.5706H77.4044V63.3582C77.4044 61.3012 78.0852 59.9395 79.4468 59.2732L86.1827 55.8835V79.7415ZM112.865 89.0847C112.865 92.0398 111.895 94.4154 109.954 96.2117C108.042 98.0369 105.579 98.9495 102.566 98.9495C99.466 98.9495 96.8441 98.0514 94.7003 96.2551C92.5853 94.4879 91.383 92.0977 91.0933 89.0847H102.566V73.9617C102.566 70.7748 103.508 68.4426 105.391 66.9651C105.651 66.7333 108.143 65.4441 112.865 63.0974V89.0847ZM135.115 84.0002H126.207V34.8938C126.207 32.5471 127.192 30.5191 129.162 28.8098C131.161 27.4482 133.145 26.0865 135.115 24.7249V84.0002ZM140.277 104.47L138.675 97.1722C142.235 96.6976 145.499 96.0152 148.465 95.1252C151.491 94.2946 154.072 93.0782 156.208 91.4762C158.404 89.8742 160.095 87.7679 161.281 85.1572C162.468 82.5466 163.061 79.2832 163.061 75.3672C163.061 73.5279 162.883 71.7776 162.527 70.1162C162.171 68.3956 161.637 66.8826 160.925 65.5772C160.213 64.2719 159.353 63.2336 158.344 62.4622C157.395 61.6909 156.297 61.3052 155.051 61.3052C153.687 61.3052 152.441 61.8392 151.313 62.9072C150.245 63.9159 149.385 65.2212 148.732 66.8232C148.139 68.4252 147.842 70.0272 147.842 71.6292C147.842 72.8752 148.08 73.9729 148.554 74.9222C149.088 75.8122 149.949 76.4946 151.135 76.9692C152.322 77.4439 153.865 77.6812 155.763 77.6812C157.484 77.6812 159.205 77.5032 160.925 77.1472C162.705 76.7912 164.218 76.3166 165.464 75.7232L165.82 81.9532C164.396 82.9619 162.705 83.6739 160.747 84.0892C158.849 84.5046 156.92 84.7122 154.962 84.7122C152.708 84.7122 150.69 84.4749 148.91 84.0002C147.19 83.5256 145.706 82.8432 144.46 81.9532C143.274 81.0039 142.354 79.8172 141.701 78.3932C141.108 76.9692 140.811 75.3079 140.811 73.4092C140.811 71.1546 141.167 68.8999 141.879 66.6452C142.591 64.3312 143.6 62.2249 144.905 60.3262C146.211 58.4276 147.783 56.9146 149.622 55.7872C151.462 54.6006 153.509 54.0072 155.763 54.0072C158.137 54.0072 160.213 54.6302 161.993 55.8762C163.773 57.0629 165.257 58.6946 166.443 60.7712C167.63 62.8479 168.52 65.1916 169.113 67.8022C169.707 70.4129 170.003 73.1126 170.003 75.9012C170.003 81.4192 168.876 86.1659 166.621 90.1412C164.426 94.1759 161.103 97.3799 156.653 99.7532C152.263 102.127 146.804 103.699 140.277 104.47ZM156.03 35.0502C154.784 35.0502 153.716 34.6349 152.826 33.8042C151.996 32.9142 151.58 31.8759 151.58 30.6892C151.58 29.5026 151.996 28.4642 152.826 27.5742C153.716 26.6842 154.784 26.2392 156.03 26.2392C157.217 26.2392 158.226 26.6842 159.056 27.5742C159.946 28.4642 160.391 29.5026 160.391 30.6892C160.391 31.8759 159.946 32.9142 159.056 33.8042C158.226 34.6349 157.217 35.0502 156.03 35.0502ZM149.978 44.8402C148.732 44.8402 147.664 44.4249 146.774 43.5942C145.944 42.7042 145.528 41.6659 145.528 40.4792C145.528 39.2926 145.944 38.2542 146.774 37.3642C147.664 36.4742 148.732 36.0292 149.978 36.0292C151.165 36.0292 152.174 36.4742 153.004 37.3642C153.894 38.2542 154.339 39.2926 154.339 40.4792C154.339 41.6659 153.894 42.7042 153.004 43.5942C152.174 44.4249 151.165 44.8402 149.978 44.8402ZM162.082 44.8402C160.836 44.8402 159.768 44.4249 158.878 43.5942C158.048 42.7042 157.632 41.6659 157.632 40.4792C157.632 39.2926 158.048 38.2542 158.878 37.3642C159.768 36.4742 160.836 36.0292 162.082 36.0292C163.269 36.0292 164.278 36.4742 165.108 37.3642C165.998 38.2542 166.443 39.2926 166.443 40.4792C166.443 41.6659 165.998 42.7042 165.108 43.5942C164.278 44.4249 163.269 44.8402 162.082 44.8402Z" fill="white"/>
<path d="M19.8242 58.7676L17.3887 61.2031L3.82324 47.6377L17.3887 34.0723L19.8242 36.5078L8.69434 47.6377L19.8242 58.7676ZM47.8613 29.3711L30.9258 68H27.584L44.5762 29.3711H47.8613ZM71.8203 47.6377L58.2549 61.2031L55.8193 58.7676L66.9492 47.6377L55.8193 36.5078L58.2549 34.0723L71.8203 47.6377Z" fill="white"/>
<path d="M124.34 35.6133C124.891 35.6133 125.16 35.3203 125.254 34.8398L127.387 23.9766H134.16L136.293 34.8398C136.387 35.3203 136.656 35.6133 137.207 35.6133C137.992 35.6133 138.262 35.0742 138.133 34.4414L135.941 23.2852C135.801 22.5469 135.18 22.0078 134.465 22.0078H134.406L131.805 14.25C131.629 13.7578 131.301 13.4766 130.797 13.4766C130.27 13.4766 129.906 13.7578 129.742 14.25L127.141 22.0078H127.094C126.379 22.0078 125.758 22.5469 125.617 23.2852L123.426 34.4414C123.297 35.0742 123.578 35.6133 124.34 35.6133Z" fill="white"/>
</svg>
